<svg xmlns="http://www.w3.org/2000/svg" width="495" height="195" viewBox="0 0 495 195" role="img" aria-label="Statistiche GitHub di Maranjah">
<rect x="0.5" y="0.5" width="494" height="194" rx="6" fill="#1E1E1E" stroke="#3A3A3A"/>
<text x="25" y="35" font-family="Segoe UI, Ubuntu, sans-serif" font-size="18" fill="#E95420" font-weight="600" text-anchor="start">Maranjah&#x27;s GitHub Stats</text>
<path transform="translate(25,57) scale(0.62)" fill="#E95420" d="M8 .25l2.28 4.62 5.1.74-3.69 3.6.87 5.08L8 11.9l-4.56 2.39.87-5.08L.62 5.61l5.1-.74z"/>
<text x="48" y="68" font-family="Segoe UI, Ubuntu, sans-serif" font-size="14" fill="#F5F5F5" font-weight="normal" text-anchor="start">Total Stars Earned</text>
<text x="320" y="68" font-family="Segoe UI, Ubuntu, sans-serif" font-size="14" fill="#F5F5F5" font-weight="700" text-anchor="start">0</text>
<g transform="translate(25,82) scale(0.62)" fill="#E95420"><path d="M10.86 7a3.5 3.5 0 0 0-6.72 0H1v2h3.14a3.5 3.5 0 0 0 6.72 0H15V7z"/><circle cx="7.5" cy="8" r="1.6" fill="#1E1E1E"/></g>
<text x="48" y="93" font-family="Segoe UI, Ubuntu, sans-serif" font-size="14" fill="#F5F5F5" font-weight="normal" text-anchor="start">Total Commits (2026)</text>
<text x="320" y="93" font-family="Segoe UI, Ubuntu, sans-serif" font-size="14" fill="#F5F5F5" font-weight="700" text-anchor="start">200</text>
<g transform="translate(25,107) scale(0.62)" fill="#E95420"><circle cx="3.5" cy="3" r="2.4"/><circle cx="3.5" cy="13" r="2.4"/><rect x="2.7" y="4" width="1.6" height="8"/><circle cx="12.5" cy="13" r="2.4"/><rect x="11.7" y="4" width="1.6" height="8"/><path d="M4 3.5h6.5a2 2 0 0 1 2 2v1" stroke="#E95420" stroke-width="1.6" fill="none"/></g>
<text x="48" y="118" font-family="Segoe UI, Ubuntu, sans-serif" font-size="14" fill="#F5F5F5" font-weight="normal" text-anchor="start">Total PRs</text>
<text x="320" y="118" font-family="Segoe UI, Ubuntu, sans-serif" font-size="14" fill="#F5F5F5" font-weight="700" text-anchor="start">16</text>
<g transform="translate(25,132) scale(0.62)"><circle cx="8" cy="8" r="6.6" fill="none" stroke="#E95420" stroke-width="1.9"/><circle cx="8" cy="8" r="2.1" fill="#E95420"/></g>
<text x="48" y="143" font-family="Segoe UI, Ubuntu, sans-serif" font-size="14" fill="#F5F5F5" font-weight="normal" text-anchor="start">Total Issues</text>
<text x="320" y="143" font-family="Segoe UI, Ubuntu, sans-serif" font-size="14" fill="#F5F5F5" font-weight="700" text-anchor="start">0</text>
<g transform="translate(25,157) scale(0.62)" fill="#E95420"><circle cx="8" cy="5" r="3.2"/><path d="M1.6 15c0-3.5 2.9-5.4 6.4-5.4s6.4 1.9 6.4 5.4z"/></g>
<text x="48" y="168" font-family="Segoe UI, Ubuntu, sans-serif" font-size="14" fill="#F5F5F5" font-weight="normal" text-anchor="start">Contributed to</text>
<text x="320" y="168" font-family="Segoe UI, Ubuntu, sans-serif" font-size="14" fill="#F5F5F5" font-weight="700" text-anchor="start">0</text>
<circle cx="400" cy="105" r="40" fill="none" stroke="#3A3A3A" stroke-width="6"/>
<circle cx="400" cy="105" r="40" fill="none" stroke="#E95420" stroke-width="6" stroke-linecap="round" stroke-dasharray="62.6 251.3" transform="rotate(-90 400 105)"/>
<text x="400" y="114" font-family="Segoe UI, Ubuntu, sans-serif" font-size="26" fill="#E95420" font-weight="700" text-anchor="middle">C</text>
</svg>