<svg xmlns="http://www.w3.org/2000/svg" width="495" height="195" viewBox="0 0 495 195" role="img" aria-label="Statistiche GitHub di Andrea Marangione">
<rect x="0.5" y="0.5" width="494" height="194" rx="6" fill="#1E1E1E" stroke="#3A3A3A"/>
<text x="25" y="35" font-family="Segoe UI, Ubuntu, sans-serif" font-size="18" fill="#E95420" font-weight="600" text-anchor="start">Andrea Marangione&#x27;s GitHub Stats</text>
<path transform="translate(25,57) scale(0.62)" fill="#E95420" fill-rule="evenodd" d="M2 2.5A2.5 2.5 0 0 1 4.5 0h8.75a.75.75 0 0 1 .75.75v12.5a.75.75 0 0 1-.75.75h-2.5a.75.75 0 0 1 0-1.5h1.75v-2h-8a1 1 0 0 0-.714 1.7.75.75 0 1 1-1.072 1.05A2.495 2.495 0 0 1 2 11.5Zm10.5-1h-8a1 1 0 0 0-1 1v6.708A2.486 2.486 0 0 1 4.5 9h8ZM5 12.25a.25.25 0 0 1 .25-.25h3.5a.25.25 0 0 1 .25.25v3.25a.25.25 0 0 1-.4.2l-1.45-1.087a.249.249 0 0 0-.3 0L5.4 15.7a.25.25 0 0 1-.4-.2Z"/>
<text x="48" y="68" font-family="Segoe UI, Ubuntu, sans-serif" font-size="14" fill="#F5F5F5" font-weight="normal" text-anchor="start">Repositories</text>
<text x="320" y="68" font-family="Segoe UI, Ubuntu, sans-serif" font-size="14" fill="#F5F5F5" font-weight="700" text-anchor="start">18</text>
<g transform="translate(25,82) scale(0.62)" fill="#E95420"><path d="M10.86 7a3.5 3.5 0 0 0-6.72 0H1v2h3.14a3.5 3.5 0 0 0 6.72 0H15V7z"/><circle cx="7.5" cy="8" r="1.6" fill="#1E1E1E"/></g>
<text x="48" y="93" font-family="Segoe UI, Ubuntu, sans-serif" font-size="14" fill="#F5F5F5" font-weight="normal" text-anchor="start">Total Commits (2026)</text>
<text x="320" y="93" font-family="Segoe UI, Ubuntu, sans-serif" font-size="14" fill="#F5F5F5" font-weight="700" text-anchor="start">1.244</text>
<g transform="translate(25,107) scale(0.62)" fill="#E95420"><circle cx="3.5" cy="3" r="2.4"/><circle cx="3.5" cy="13" r="2.4"/><rect x="2.7" y="4" width="1.6" height="8"/><circle cx="12.5" cy="13" r="2.4"/><rect x="11.7" y="4" width="1.6" height="8"/><path d="M4 3.5h6.5a2 2 0 0 1 2 2v1" stroke="#E95420" stroke-width="1.6" fill="none"/></g>
<text x="48" y="118" font-family="Segoe UI, Ubuntu, sans-serif" font-size="14" fill="#F5F5F5" font-weight="normal" text-anchor="start">Total PRs</text>
<text x="320" y="118" font-family="Segoe UI, Ubuntu, sans-serif" font-size="14" fill="#F5F5F5" font-weight="700" text-anchor="start">17</text>
<g transform="translate(25,132) scale(0.62)"><circle cx="8" cy="8" r="6.6" fill="none" stroke="#E95420" stroke-width="1.9"/><circle cx="8" cy="8" r="2.1" fill="#E95420"/></g>
<text x="48" y="143" font-family="Segoe UI, Ubuntu, sans-serif" font-size="14" fill="#F5F5F5" font-weight="normal" text-anchor="start">Total Issues</text>
<text x="320" y="143" font-family="Segoe UI, Ubuntu, sans-serif" font-size="14" fill="#F5F5F5" font-weight="700" text-anchor="start">0</text>
<g transform="translate(25,157) scale(0.62)" fill="#E95420"><circle cx="8" cy="5" r="3.2"/><path d="M1.6 15c0-3.5 2.9-5.4 6.4-5.4s6.4 1.9 6.4 5.4z"/></g>
<text x="48" y="168" font-family="Segoe UI, Ubuntu, sans-serif" font-size="14" fill="#F5F5F5" font-weight="normal" text-anchor="start">Contributed to</text>
<text x="320" y="168" font-family="Segoe UI, Ubuntu, sans-serif" font-size="14" fill="#F5F5F5" font-weight="700" text-anchor="start">0</text>
<circle cx="420" cy="105" r="40" fill="none" stroke="#3A3A3A" stroke-width="6"/>
<circle cx="420" cy="105" r="40" fill="none" stroke="#E95420" stroke-width="6" stroke-linecap="round" stroke-dasharray="192.4 251.3" transform="rotate(-90 420 105)"/>
<text x="420" y="114" font-family="Segoe UI, Ubuntu, sans-serif" font-size="26" fill="#E95420" font-weight="700" text-anchor="middle">A</text>
</svg>